<svg width="20" height="20" viewBox="0 0 20 20" fill="none" xmlns="http://www.w3.org/2000/svg">
<path d="M10 17.5C5.85786 17.5 2.5 14.1421 2.5 10C2.5 5.85786 5.85786 2.5 10 2.5C14.1421 2.5 17.5 5.85786 17.5 10C17.5 14.1421 14.1421 17.5 10 17.5ZM8.28252 15.7506C7.56057 14.2194 7.11799 12.5307 7.02048 10.75H4.04642C4.3435 13.1324 6.03729 15.081 8.28252 15.7506ZM8.52302 10.75C8.63582 12.5791 9.15835 14.2973 10 15.814C10.8417 14.2973 11.3642 12.5791 11.477 10.75H8.52302ZM15.9536 10.75H12.9795C12.882 12.5307 12.4395 14.2194 11.7175 15.7506C13.9627 15.081 15.6565 13.1324 15.9536 10.75ZM4.04642 9.25H7.02048C7.11799 7.46933 7.56057 5.78055 8.28252 4.24942C6.03729 4.919 4.3435 6.86762 4.04642 9.25ZM8.52302 9.25H11.477C11.3642 7.42092 10.8417 5.70269 10 4.18599C9.15835 5.70269 8.63582 7.42092 8.52302 9.25ZM11.7175 4.24942C12.4395 5.78055 12.882 7.46933 12.9795 9.25H15.9536C15.6565 6.86762 13.9627 4.919 11.7175 4.24942Z" fill="#0A0A0A" fill-opacity="0.45"/>
</svg>
