<svg width="73" height="25" viewBox="0 0 73 25" fill="none" xmlns="http://www.w3.org/2000/svg">
<path d="M3.19995 4.91023C3.19995 3.84984 4.05957 2.99023 5.11995 2.99023H8.01679C9.07718 2.99023 9.93679 3.84984 9.93679 4.91023V7.24166C9.93679 8.30204 10.7964 9.16166 11.8568 9.16166H14.08C15.1403 9.16166 16 10.0213 16 11.0816V14.0988C16 15.1591 15.1403 16.0188 14.08 16.0188H11.8568C10.7964 16.0188 9.9368 16.8784 9.9368 17.9388V20.2702C9.9368 21.3306 9.07718 22.1902 8.01679 22.1902H5.11995C4.05957 22.1902 3.19995 21.3306 3.19995 20.2702V17.253C3.19995 16.1927 4.05957 15.333 5.11996 15.333H7.34311C8.4035 15.333 9.26311 14.4734 9.26311 13.413V11.7673C9.26311 10.7069 8.4035 9.84737 7.34311 9.84737H5.11995C4.05956 9.84737 3.19995 8.98776 3.19995 7.92737V4.91023Z" fill="white"/>
<path d="M29.5679 12.7738C29.5679 16.057 31.8335 17.689 34.1183 17.689C36.4223 17.689 38.6879 16.057 38.6879 12.7738C38.6879 9.49057 36.4223 7.85856 34.1183 7.85856C31.8335 7.85856 29.5679 9.49057 29.5679 12.7738ZM27.2063 12.7738C27.2063 8.31937 30.5471 5.68896 34.1183 5.68896C37.6895 5.68896 41.0495 8.31937 41.0495 12.7738C41.0495 17.2474 37.6895 19.8778 34.1183 19.8778C30.5471 19.8778 27.2063 17.2474 27.2063 12.7738ZM44.9219 23.2378H42.7139V10.2394H44.8643V11.5066C45.3251 10.7002 46.4003 10.0282 47.8403 10.0282C50.6051 10.0282 52.1603 12.1402 52.1603 14.905C52.1603 17.7082 50.4515 19.8202 47.7635 19.8202C46.4195 19.8202 45.4019 19.2442 44.9219 18.5338V23.2378ZM49.9331 14.905C49.9331 13.1578 48.9155 12.0058 47.4179 12.0058C45.9587 12.0058 44.9027 13.1578 44.9027 14.905C44.9027 16.6906 45.9587 17.8426 47.4179 17.8426C48.8963 17.8426 49.9331 16.6906 49.9331 14.905ZM59.7556 18.553C59.2948 19.3978 58.2004 19.8586 57.106 19.8586C54.8788 19.8586 53.5732 18.2074 53.5732 16.1338V10.2394H55.8004V15.7306C55.8004 16.8826 56.338 17.8618 57.682 17.8618C58.9684 17.8618 59.6404 16.9978 59.6404 15.769V10.2394H61.8676V17.881C61.8676 18.649 61.9252 19.2442 61.9636 19.5898H59.8324C59.794 19.3786 59.7556 18.937 59.7556 18.553ZM63.3488 17.0554L65.288 16.5178C65.3648 17.3626 65.9984 18.1114 67.1888 18.1114C68.1104 18.1114 68.5904 17.6122 68.5904 17.0362C68.5904 16.537 68.2448 16.153 67.496 15.9994L66.1136 15.6922C64.4624 15.3274 63.5984 14.2522 63.5984 12.9658C63.5984 11.3338 65.096 9.95136 67.0352 9.95136C69.6464 9.95136 70.4912 11.641 70.6448 12.5626L68.7632 13.1002C68.6864 12.5626 68.2832 11.6986 67.0352 11.6986C66.248 11.6986 65.6912 12.1978 65.6912 12.7738C65.6912 13.273 66.056 13.6378 66.632 13.753L68.0528 14.041C69.8192 14.425 70.7408 15.5002 70.7408 16.8826C70.7408 18.3034 69.5888 19.8778 67.208 19.8778C64.5008 19.8778 63.464 18.1114 63.3488 17.0554Z" fill="white"/>
</svg>
