<svg width="80" height="25" viewBox="0 0 80 25" fill="none" xmlns="http://www.w3.org/2000/svg">
<path d="M7.67999 11.3104C7.67999 10.9569 7.96653 10.6704 8.31999 10.6704H18.56C18.9135 10.6704 19.2 10.9569 19.2 11.3104V12.9104C19.2 13.2639 18.9135 13.5504 18.56 13.5504H13.3721C13.0871 13.5504 12.9443 13.8951 13.1459 14.0967L18.7475 19.6983C18.9974 19.9482 18.9974 20.3534 18.7475 20.6033L17.613 21.7378C17.363 21.9878 16.9578 21.9878 16.7079 21.7378L11.1063 16.1363C10.9047 15.9347 10.56 16.0775 10.56 16.3625V21.5504C10.56 21.9039 10.2735 22.1904 9.91999 22.1904H8.31999C7.96653 22.1904 7.67999 21.9039 7.67999 21.5504V11.3104Z" fill="#292929"/>
<path d="M9.11201 2.99023C8.85133 2.99023 8.64001 3.20155 8.64001 3.46223V6.83823C8.64001 7.09891 8.85133 7.31023 9.11201 7.31023H11.048C11.3087 7.31023 11.52 7.09891 11.52 6.83823V3.46223C11.52 3.20155 11.3087 2.99023 11.048 2.99023H9.11201Z" fill="#292929"/>
<path d="M3.848 11.6304C4.10868 11.6304 4.32 11.8417 4.32 12.1024V14.0384C4.32 14.2991 4.10868 14.5104 3.848 14.5104H0.472C0.211321 14.5104 0 14.2991 0 14.0384V12.1024C0 11.8417 0.211321 11.6304 0.472 11.6304H3.848Z" fill="#292929"/>
<path d="M6.14865 7.09905C6.38632 7.33672 6.30611 7.7434 6.0252 7.92797C5.59273 8.21213 5.22213 8.58273 4.93798 9.01519C4.75341 9.29609 4.34673 9.37632 4.10906 9.13865L1.29376 6.32335C1.10944 6.13903 1.10944 5.84017 1.29376 5.65585L2.66585 4.28376C2.85018 4.09943 3.14903 4.09943 3.33336 4.28376L6.14865 7.09905Z" fill="#292929"/>
<path d="M32.8895 16.5754L36.7103 5.97696H39.1487L34.0031 19.5898H31.6607L26.5919 5.97696H29.0879L32.8895 16.5754ZM40.6129 13.8874H45.2017C45.1761 13.2986 44.9649 12.8058 44.5681 12.409C44.1841 12.0122 43.6273 11.8138 42.8977 11.8138C42.2321 11.8138 41.6945 12.025 41.2849 12.4474C40.8753 12.857 40.6513 13.337 40.6129 13.8874ZM45.4513 16.3258L47.3329 16.921C47.0641 17.7786 46.5585 18.489 45.8161 19.0522C45.0865 19.6026 44.1841 19.8778 43.1089 19.8778C41.7777 19.8778 40.6449 19.4234 39.7105 18.5146C38.7889 17.6058 38.3281 16.3898 38.3281 14.8666C38.3281 13.433 38.7761 12.2554 39.6721 11.3338C40.5809 10.4122 41.6497 9.95136 42.8785 9.95136C44.3121 9.95136 45.4321 10.393 46.2385 11.2762C47.0449 12.1466 47.4481 13.3242 47.4481 14.809C47.4481 15.2058 47.4289 15.4426 47.3905 15.5194H40.5553C40.5809 16.2234 40.8369 16.8058 41.3233 17.2666C41.8225 17.7274 42.4177 17.9578 43.1089 17.9578C44.3121 17.9578 45.0929 17.4138 45.4513 16.3258ZM54.4724 10.1818V12.4474C54.2164 12.409 53.9732 12.3898 53.7428 12.3898C52.066 12.3898 51.2276 13.305 51.2276 15.1354V19.5898H49.0004V10.2394H51.17V11.737C51.3876 11.2378 51.7396 10.8474 52.226 10.5658C52.7124 10.2714 53.2628 10.1242 53.8772 10.1242C54.082 10.1242 54.2804 10.1434 54.4724 10.1818ZM54.9488 17.0554L56.888 16.5178C56.9264 16.9658 57.112 17.3434 57.4448 17.6506C57.7776 17.9578 58.2256 18.1114 58.7888 18.1114C59.224 18.1114 59.5632 18.009 59.8064 17.8042C60.0624 17.5994 60.1904 17.3434 60.1904 17.0362C60.1904 16.4986 59.8256 16.153 59.096 15.9994L57.7136 15.6922C56.9072 15.513 56.2864 15.1802 55.8512 14.6938C55.416 14.2074 55.1984 13.6314 55.1984 12.9658C55.1984 12.1466 55.5312 11.4426 56.1968 10.8538C56.8624 10.2522 57.6752 9.95136 58.6352 9.95136C59.2496 9.95136 59.7936 10.041 60.2672 10.2202C60.7408 10.3994 61.1056 10.6362 61.3616 10.9306C61.6304 11.2122 61.8352 11.4874 61.976 11.7562C62.1168 12.025 62.2064 12.2938 62.2448 12.5626L60.3632 13.1002C60.312 12.7418 60.1456 12.4218 59.864 12.1402C59.5952 11.8458 59.1856 11.6986 58.6352 11.6986C58.2512 11.6986 57.9312 11.8074 57.6752 12.025C57.4192 12.2298 57.2912 12.4794 57.2912 12.7738C57.2912 13.2986 57.6048 13.625 58.232 13.753L59.6528 14.041C60.5232 14.233 61.1888 14.5786 61.6496 15.0778C62.1104 15.577 62.3408 16.1786 62.3408 16.8826C62.3408 17.6634 62.0272 18.361 61.4 18.9754C60.7856 19.577 59.9216 19.8778 58.808 19.8778C58.168 19.8778 57.592 19.7818 57.08 19.5898C56.5808 19.3978 56.184 19.1546 55.8896 18.8602C55.608 18.553 55.384 18.2522 55.2176 17.9578C55.064 17.6506 54.9744 17.3498 54.9488 17.0554ZM65.4724 13.8874H70.0612C70.0356 13.2986 69.8244 12.8058 69.4276 12.409C69.0436 12.0122 68.4868 11.8138 67.7572 11.8138C67.0916 11.8138 66.554 12.025 66.1444 12.4474C65.7348 12.857 65.5108 13.337 65.4724 13.8874ZM70.3108 16.3258L72.1924 16.921C71.9236 17.7786 71.418 18.489 70.6756 19.0522C69.946 19.6026 69.0436 19.8778 67.9684 19.8778C66.6372 19.8778 65.5044 19.4234 64.57 18.5146C63.6484 17.6058 63.1876 16.3898 63.1876 14.8666C63.1876 13.433 63.6356 12.2554 64.5316 11.3338C65.4404 10.4122 66.5092 9.95136 67.738 9.95136C69.1716 9.95136 70.2916 10.393 71.098 11.2762C71.9044 12.1466 72.3076 13.3242 72.3076 14.809C72.3076 15.2058 72.2884 15.4426 72.25 15.5194H65.4148C65.4404 16.2234 65.6964 16.8058 66.1828 17.2666C66.682 17.7274 67.2772 17.9578 67.9684 17.9578C69.1716 17.9578 69.9524 17.4138 70.3108 16.3258ZM76.0871 19.5898H73.8599V5.68896H76.0871V19.5898Z" fill="#292929"/>
</svg>
